<?xml version="1.0" encoding="UTF-8"?>
<svg id="Ebene_1" xmlns="http://www.w3.org/2000/svg" xmlns:xlink="http://www.w3.org/1999/xlink" version="1.1" viewBox="0 0 417.7 87">
  <!-- Generator: Adobe Illustrator 29.2.1, SVG Export Plug-In . SVG Version: 2.1.0 Build 116)  -->
  <defs>
    <style>
      .st0 {
        fill: #fff;
        fill-rule: evenodd;
      }

      .st1 {
        fill: #0091f2;
      }
    </style>
  </defs>
  <g id="Group">
    <g id="Combined-Shape">
      <path class="st0" d="M208,50.9v-1.1c0-6.8-1.9-12-5.6-15.5-3.9-3.7-9.6-5.6-17.1-5.6s-13,1.5-16.9,4.5c-4.3,3.3-6.5,8.1-6.5,14.6s2.2,11.3,6.5,14.6c4,3,9.6,4.5,16.9,4.5,11.6,0,18.9-4,22.1-11.9h-12.4c-1.7,3.1-4.9,4.6-9.6,4.6s-6.5-1-8.7-3c-1.8-1.7-2.7-3.5-2.7-5.6h0c0,0,34,0,34,0h0ZM173.9,43.9c0-1.2.7-2.6,2.1-4.2,2.1-2.4,5.1-3.6,9-3.6s6.6,1.1,8.7,3.2c1.5,1.5,2.3,3.1,2.3,4.6h0c0,.1-22.1,0-22.1,0h0ZM152.9,34.4c-3.8-3.5-8.5-5.3-14.2-5.3s-11.1,1.8-13.7,5.3v-16.9h-11.6v48h11.2v-4.4h.1c2.1,2.2,4.2,3.8,6.4,4.7,1.9.7,4.1,1.1,6.8,1.1,6,0,10.9-1.6,14.6-4.7,4-3.3,5.9-8,5.9-13.9,0-5.8-1.8-10.4-5.5-13.9h0ZM143.2,55.7c-2,1.7-4.5,2.6-7.7,2.6s-5.6-.9-7.6-2.6c-2.2-1.9-3.3-4.4-3.3-7.7s1.1-5.8,3.3-7.7c2-1.7,4.5-2.6,7.6-2.6s5.7.9,7.7,2.6c2.2,1.9,3.3,4.4,3.3,7.7s-1.1,5.8-3.3,7.7ZM278.1,30.1v4.3h-.1c-2.8-3.5-7.3-5.2-13.5-5.2s-12.4,1.7-16.1,5.2c-3.4,3.1-5,7.3-5,12.5s1.6,9,4.9,12.3c3.6,3.6,8.7,5.4,15.3,5.4s11-1.7,14.1-5.2v2.8c0,3.9-1.1,6.7-3.2,8.3-1.7,1.2-4.2,1.9-7.5,1.9s-5.6-.4-7.1-1.1c-1.3-.7-2.2-1.8-2.6-3.3h-12.4c.5,4.8,3.2,8,8.1,9.9,3.2,1.2,7.8,1.8,13.7,1.8s13.3-1.3,16.9-3.9c3.9-2.7,5.8-7.1,5.8-13V30.1h-11.3ZM266.6,56.8c-7.4,0-11.1-3.2-11.1-9.7s3.7-9.7,11.1-9.7,11.2,3.2,11.2,9.7-3.8,9.7-11.2,9.7ZM211.4,65.5V30.1h11.2v6.9h0c2.2-2.9,4.3-4.8,6.2-5.9,2.1-1.3,4.8-1.9,7.9-1.9s3.1.1,4.2.3v10.9c-2.5-.7-4.6-1.1-6.4-1.1-7.8,0-11.7,3.6-11.7,10.9v15.3h-11.5ZM338.5,29c5.3,0,9.6,1.5,13.1,4.5,4.1,3.6,6.1,8.7,6.1,15.5v.9h-32.5c.2,3.5,1.7,6.2,4.4,8.3,2.4,1.9,5.3,2.9,8.5,2.9,5.7,0,9.5-2.1,11.4-6.3h7.1c-1.5,4-4.1,7.1-7.7,9.2-3.1,1.9-6.6,2.8-10.4,2.8-6.6,0-11.7-1.9-15.4-5.6-3.4-3.5-5.1-7.9-5.1-13.3s1.7-9.8,5.1-13.3c3.7-3.7,8.9-5.6,15.4-5.6ZM365.2,30.2l10.4,12.6,10.5-12.6h8.3l-14.8,17.1,15.9,18.2h-8.7l-11.5-13.8-11.5,13.8h-8.2l15.7-18.2-14.6-17.1h8.5ZM338.2,34.7c-3.3,0-6.1.8-8.4,2.6-2.4,1.8-3.9,4.2-4.4,7.3h25.1c-.5-3.1-1.9-5.6-4.1-7.3-2.2-1.7-4.9-2.6-8.2-2.6ZM300.9,30.2v-5.2c0-5.8,3.6-8.8,10.8-8.8s2.4.2,5.9.5v5.1h-3.8c-2,0-3.3,0-4.1.3-1.4.5-2.1,1.5-2.1,3.1v4.9h10v5.2h-10v30h-6.7v-30h-7.2v-5.2h7.2q0,.1,0,.1Z"/>
    </g>
  </g>
  <g id="BER-Content_x2F_Signet">
    <rect id="BG" class="st1" y="0" width="96.4" height="87.4"/>
    <path id="Mountains" class="st0" d="M53.2,23.2l9.1,13.1-24.1,26.2h11.9l-23.2,8-6.3-8L53.2,23.2ZM31.9,38.6l2.6,3.2-15.4,18.5H5.4l26.5-21.7ZM67.9,34.2l22.4,26.1h-46.7l24.3-26.1Z"/>
  </g>
</svg>